<svg width="1234" height="737" viewBox="0 0 1234 737" fill="none" xmlns="http://www.w3.org/2000/svg">
<path fill-rule="evenodd" clip-rule="evenodd" d="M1234 0H-1V685.776L46.5 617H59.5L82 604L102 591.5L134.5 581.5L147.5 570C135.5 566.333 116.102 549.6 134.5 512C157.5 465 254.5 394.5 302.5 415.5C350.5 436.5 385 460.5 382 497.5C381.168 507.758 379.754 513.549 378.117 516.424C400.566 527.653 433 546.235 433 556C433 567.2 399 554 382 546C382.332 553 381.602 569.4 376 579C377.832 585.167 379 600.5 369 612.5C359 624.5 352.168 625.5 350 624.5V659.5L382 667L392 697L410.5 702.5L433 719L591 737L570.5 719L578.5 702.5L648.5 674.5V650L806 635.5C801.168 631.167 800.199 615.3 835 586.5C869.801 557.7 876.832 546.167 876 544C887.168 532.667 916.199 511.3 943 516.5C969.801 521.7 984.5 537 988.5 544H1016.5V523L1028.5 511.5L1037.5 523V541L1050 551.5L1037.5 555.5V565C1052.83 570 1078.5 581.3 1058.5 586.5L1094.5 597L1090.5 604.5H1058.5V621.5L1042.5 624.5L1050 692L1234 703V0Z" fill="#6C0000"/>
</svg>
