<svg width="1920" height="1080" viewBox="0 0 1920 1080" fill="none" xmlns="http://www.w3.org/2000/svg">
<g clip-path="url(#clip0_831_80)">
<path d="M-1.5 686.5L46.5 617H59.5L82 604L102 591.5L134.5 581.5L147.5 570C135.5 566.333 116.1 549.6 134.5 512C157.5 465 254.5 394.5 302.5 415.5C350.5 436.5 385 460.5 382 497.5C381.168 507.758 379.752 513.549 378.117 516.424C400.568 527.653 433 546.235 433 556C433 567.2 399 554 382 546C382.333 553 381.6 569.4 376 579C377.833 585.167 379 600.5 369 612.5C359 624.5 352.167 625.5 350 624.5V659.5L382 667L392 697L410.5 702.5L433 719L591 737L570.5 719L578.5 702.5L648.5 674.5V650L806 635.5C801.167 631.167 800.2 615.3 835 586.5C869.8 557.7 876.833 546.167 876 544C887.167 532.667 916.2 511.3 943 516.5C969.8 521.7 984.5 537 988.5 544H1016.5V523L1028.5 511.5L1037.5 523V541L1050 551.5L1037.5 555.5V565C1052.83 570 1078.5 581.3 1058.5 586.5L1094.5 597L1090.5 604.5H1058.5V621.5L1042.5 624.5L1050 692L1234 703V1080H-1.5V686.5Z" fill="black"/>
</g>
<defs>
<clipPath id="clip0_831_80">
<rect width="1920" height="1080" fill="white"/>
</clipPath>
</defs>
</svg>
