<svg width="1236" height="669" viewBox="0 0 1236 669" fill="none" xmlns="http://www.w3.org/2000/svg">
<path d="M0.5 275.5L48.5 206H61.5L84 193L104 180.5L136.5 170.5L149.5 159C137.5 155.333 118.1 138.6 136.5 101C159.5 54.0001 256.5 -16.4999 304.5 4.50006C352.5 25.5001 387 49.5 384 86.5C383.168 96.7583 381.752 102.549 380.117 105.424C402.568 116.653 435 135.235 435 145C435 156.2 401 143 384 135C384.333 142 383.6 158.4 378 168C379.833 174.167 381 189.5 371 201.5C361 213.5 354.167 214.5 352 213.5V248.5L384 256L394 286L412.5 291.5L435 308L593 326L572.5 308L580.5 291.5L650.5 263.5V239L808 224.5C803.167 220.167 802.2 204.3 837 175.5C871.8 146.7 878.833 135.167 878 133C889.167 121.667 918.2 100.3 945 105.5C971.8 110.7 986.5 126 990.5 133H1018.5V112L1030.5 100.5L1039.5 112V130L1052 140.5L1039.5 144.5V154C1054.83 159 1080.5 170.3 1060.5 175.5L1096.5 186L1092.5 193.5H1060.5V210.5L1044.5 213.5L1052 281L1236 292V669H0.5V275.5Z" fill="black"/>
</svg>
