<svg width="1235" height="737" viewBox="0 0 1235 737" fill="none" xmlns="http://www.w3.org/2000/svg">
<path fill-rule="evenodd" clip-rule="evenodd" d="M1235 0H0V685.776L47.5 617H60.5L83 604L103 591.5L135.5 581.5L148.5 570C136.5 566.333 117.102 549.6 135.5 512C158.5 465 255.5 394.5 303.5 415.5C351.5 436.5 386 460.5 383 497.5C382.168 507.758 380.754 513.549 379.117 516.424C401.566 527.653 434 546.235 434 556C434 567.2 400 554 383 546C383.332 553 382.602 569.4 377 579C378.832 585.167 380 600.5 370 612.5C360 624.5 353.168 625.5 351 624.5V659.5L383 667L393 697L411.5 702.5L434 719L592 737L571.5 719L579.5 702.5L649.5 674.5V650L807 635.5C802.168 631.167 801.199 615.3 836 586.5C870.801 557.7 877.832 546.167 877 544C888.168 532.667 917.199 511.3 944 516.5C970.801 521.7 985.5 537 989.5 544H1017.5V523L1029.5 511.5L1038.5 523V541L1051 551.5L1038.5 555.5V565C1053.83 570 1079.5 581.3 1059.5 586.5L1095.5 597L1091.5 604.5H1059.5V621.5L1043.5 624.5L1051 692L1235 703V0Z" fill="#6C0000"/>
</svg>
